<svg width="35" height="35" viewBox="0 0 35 35" fill="none" xmlns="http://www.w3.org/2000/svg">
<path d="M17.5007 10.9966V17.4999L21.5653 21.5644" stroke="#201B10" stroke-width="2.43872" stroke-linecap="round" stroke-linejoin="round"/>
<path d="M8.08179 27.9792C13.4847 32.8533 21.6735 32.8926 27.0232 28.0827L27.6873 28.7468C21.9656 33.9291 13.1827 33.8776 7.41772 28.6423L8.08179 27.9792ZM28.6433 7.41669C33.8784 13.1814 33.9285 21.9645 28.7478 27.6862L28.0837 27.0222C32.8936 21.6722 32.8547 13.4826 27.9802 8.07977L28.6433 7.41669ZM3.38647 16.1677C3.22408 18.1104 3.46091 20.0687 4.08667 21.9206C4.71223 23.772 5.71147 25.4719 7.01831 26.9177L6.35522 27.5807C4.94598 26.0316 3.86889 24.2067 3.19702 22.2175C2.52538 20.2289 2.27481 18.1254 2.45581 16.0397L3.38647 16.1677ZM8.43433 8.7077L8.42944 9.64618L7.34546 9.6413L7.96362 9.02313L8.27905 8.70673L8.43433 8.7077ZM7.31421 6.25262C13.0354 1.07097 21.8179 1.1221 27.5828 6.35614L26.9197 7.01923C21.5168 2.14594 13.3267 2.1062 7.97729 6.91571L7.31421 6.25262ZM5.49585 5.92157L4.56226 6.85516L4.5564 5.77411L5.49487 5.76825L5.49585 5.92157Z" stroke="#201B10" stroke-width="1.5"/>
</svg>
