<svg width="260" height="55" viewBox="0 0 260 55" fill="none" xmlns="http://www.w3.org/2000/svg">
<path d="M157.367 33.895L163.985 23.8718H157.781L150.942 34.2278V23.8718H145.469V45.1559H150.942V35.1499H153.131L157.781 45.1559H163.985L158.753 33.895H157.367Z" fill="#FF5F00"/>
<path d="M142.389 23.8718H136.916V41.8087H133.718V23.8718H128.245V41.8087H125.048V23.8718H119.575V41.8087H119.569L119.575 41.9757V45.1559H119.691H125.048H128.245H133.718H136.916H142.389H142.512L142.389 41.8087V23.8718Z" fill="#FF5F00"/>
<path d="M195.187 23.8718H192.45H191.59H188.964H187.046L182.182 45.1559H188.386L191.764 27.4646H192.276L195.654 45.1559H201.859L196.995 23.8718H195.187Z" fill="#FF5F00"/>
<path d="M227.385 23.8718H218.469L208.636 31.1556V23.8718H203.164V45.1559H208.636V41.9941C209.867 44.3492 212.231 45.8325 214.946 45.8325C218.931 45.8325 222.165 42.4055 222.165 38.184C222.165 34.5335 219.753 31.4822 216.529 30.7161L221.687 27.4646H223.519V45.1547H228.992V23.8706H227.387L227.385 23.8718ZM217.804 37.7653C217.804 39.6722 216.346 41.2169 214.557 41.2169C212.768 41.2169 211.31 39.6722 211.31 37.7653C211.31 35.8584 212.768 34.3199 214.557 34.3199C216.346 34.3199 217.804 35.8646 217.804 37.7653Z" fill="#FF5F00"/>
<path d="M172.477 23.1633C166.709 23.1633 162.03 28.1289 162.03 34.245C162.03 40.3611 166.71 45.3143 172.477 45.3143C178.245 45.3143 182.925 40.3549 182.925 34.245C182.925 28.135 178.238 23.1633 172.477 23.1633ZM172.477 39.3652C169.808 39.3652 167.644 37.0703 167.644 34.2401C167.644 31.4098 169.808 29.1149 172.477 29.1149C175.146 29.1149 177.311 31.4098 177.311 34.2401C177.311 37.0703 175.146 39.3652 172.477 39.3652Z" fill="#FF5F00"/>
<path d="M119.834 27.6468C114.908 35.7078 106.256 43.3194 102.554 43.3194C101.248 43.3194 100.631 42.3924 100.516 40.9091C106.235 39.1974 113.087 29.1472 113.087 21.9432C113.087 19.1928 112.079 17.3289 109.975 17.3289C104.662 17.3289 97.086 32.6135 97.086 40.6991C97.086 44.5265 98.383 47.2708 101.624 47.2708C106.795 47.2708 114.654 41.8865 122.974 29.7833L119.831 27.648L119.834 27.6468ZM110.234 20.3126L110.536 20.8787C110.069 21.2298 109.731 21.5184 109.313 21.9739C109.313 27.1102 105.088 34.5155 101.027 36.7748C102.567 30.6796 107.121 22.249 110.234 20.3126Z" fill="#CB81FF"/>
<path d="M93.9705 24.8476C93.1925 26.5569 88.1049 35.5302 84.7586 39.441C86.1526 33.9217 88.7197 26.6956 89.9419 23.2232L85.8029 23.0697L81.2099 37.5611C80.6626 39.29 79.2416 44.576 83.2211 44.5699C87.0337 44.5638 94.0011 32.6017 95.0282 29.1256L95.8896 29.2545C94.9055 31.9006 92.8452 35.9244 91.6525 37.1928L89.9431 45.2416H93.903L98.5647 25.6679C99.3145 22.511 95.908 20.5857 93.9717 24.8489L93.9705 24.8476Z" fill="#CB81FF"/>
<path d="M79.15 23.0454L76.9608 30.9026C75.6466 32.1514 73.7888 33.1509 72.369 33.5585L75.2883 23.0442H71.4143L65.3206 45.2394H69.1945L71.137 37.5713C73.5286 37.1562 75.8663 36.0818 77.9265 33.6347L78.302 34.4156C77.1154 35.9357 75.9595 36.5816 75.0735 37.0187L72.9519 45.2394H76.8933L83.03 23.0442H79.15V23.0454Z" fill="#CB81FF"/>
<path d="M65.8921 22.9286C64.9877 22.9286 63.9238 23.4271 62.3936 25.7158L56.9171 33.8997L58.9369 28.4295C59.964 25.6545 59.1148 24.1957 57.5724 24.1957C56.3612 24.1957 54.7071 25.2173 52.9916 27.6657L47.3347 35.7268H45.8732C48.4575 31.8577 50.6086 27.527 52.2848 24.208L48.1213 24.2387C47.1433 26.1837 38.4726 41.7201 33.8796 41.7201C33.1163 41.7201 32.5654 41.4241 32.1973 40.9023C38.507 35.6948 44.6461 25.6876 44.6461 20.4605C44.6461 18.4112 43.6988 17.0949 41.4483 17.0949C35.5018 17.0949 28.2828 29.3025 28.2828 37.641C28.2828 38.1531 28.3074 38.6614 28.3552 39.1587C27.3367 39.8795 26.463 40.2933 25.8532 40.2933C25.2813 40.2933 24.9488 39.8746 24.9488 38.9082C24.9488 33.4196 33.5949 11.9943 38.588 0.659668H33.8403C21.5007 19.3284 11.274 36.0288 0.334473 54.3402H5.14346C8.23084 48.9867 24.8641 19.267 28.8804 14.1836H29.7173C28.5123 15.937 27.8362 17.02 27.1097 18.3068C24.3119 26.4845 21.1264 34.9262 21.1264 39.3134C21.1264 42.2481 22.5596 44.236 25.0862 44.236C26.4262 44.236 27.8914 43.7338 29.3995 42.8694C30.1934 44.3011 31.4463 45.2392 33.2771 45.2392C36.9265 45.2392 40.1979 42.8424 43.0546 39.4915H44.1798L40.312 45.2392H44.8192C47.2918 41.8244 51.2087 35.437 56.2201 29.235L56.8165 29.801L54.0617 33.5546L50.4945 43.6589H54.1169C57.7209 38.6626 60.8561 33.6971 64.5521 28.7438L65.1669 29.2485L62.012 34.0237L59.0179 45.2416H62.8673L67.8972 26.7509C68.5672 24.2964 67.448 22.9298 65.8921 22.9298V22.9286ZM41.6079 20.0062L42.1797 20.56C41.5588 20.8804 40.9563 21.2795 40.3476 21.7657C39.5966 26.347 35.6012 32.1647 31.8647 36.046C32.9814 30.2013 37.5511 21.7105 41.6079 20.005V20.0062Z" fill="#CB81FF"/>
<path d="M81.2351 15.2739L80.0976 11.4404L53.3665 18.9784L54.7568 22.996L81.2351 15.2739Z" fill="#CB81FF"/>
<path d="M24.2156 17.5801C24.0218 17.5801 23.8242 17.5261 23.6499 17.4119C23.1665 17.0988 23.0278 16.4529 23.3419 15.9691C24.7151 13.8485 29.0295 7.2499 30.8604 4.45401C31.1757 3.97268 31.8224 3.83761 32.3046 4.15318C32.7869 4.46875 32.9207 5.11584 32.6053 5.5984C30.7745 8.39183 26.4637 14.9856 25.093 17.1037C24.893 17.4119 24.558 17.5801 24.2169 17.5801H24.2156Z" fill="#FCE300"/>
<path d="M30.2243 32.1521C30.12 32.1521 30.0133 32.1361 29.9077 32.1029C29.3592 31.9286 29.0549 31.3417 29.2292 30.7928C30.0746 28.132 33.605 21.2251 34.5265 19.6903C34.8235 19.1967 35.464 19.037 35.9573 19.333C36.4506 19.6301 36.6114 20.2711 36.3144 20.7647C35.3241 22.4137 31.968 29.059 31.2171 31.4239C31.0759 31.8684 30.6661 32.1521 30.2231 32.1521H30.2243Z" fill="#FCE300"/>
<path d="M42.5579 35.6728C42.4328 35.6728 42.3039 35.6495 42.18 35.6016C41.6425 35.3929 41.3775 34.7875 41.5861 34.2509C42.2058 32.6584 45.5889 27.1243 46.6466 25.4986C46.9608 25.016 47.6074 24.8797 48.0897 25.1941C48.5719 25.5084 48.7081 26.1555 48.394 26.6381C47.2013 28.4701 44.0292 33.7217 43.5298 35.0073C43.3691 35.4199 42.9752 35.6728 42.5579 35.6728Z" fill="#FCE300"/>
<path d="M64.0347 17.3659C63.5831 17.3659 63.1671 17.0699 63.0333 16.6144C62.8726 16.0606 63.1892 15.4811 63.7426 15.3202L76.0553 11.725C76.6087 11.5641 77.1879 11.8809 77.3486 12.4347C77.5094 12.9885 77.1928 13.568 76.6394 13.7289L64.3267 17.3241C64.2298 17.3523 64.1304 17.3659 64.0347 17.3659Z" fill="#FCE300"/>
<path d="M67.6752 38.8725C67.5783 38.8725 67.4801 38.859 67.3819 38.8308C66.8285 38.6687 66.5119 38.0891 66.6727 37.5366L69.3109 28.4957C69.4729 27.9419 70.0509 27.6239 70.6043 27.7859C71.1577 27.948 71.4743 28.5276 71.3135 29.0801L68.6753 38.121C68.5428 38.5766 68.1255 38.8725 67.674 38.8725H67.6752Z" fill="#FCE300"/>
<path d="M88.0636 36.6273C87.8157 36.6273 87.5679 36.5401 87.3691 36.3608C86.9396 35.9765 86.9028 35.3171 87.2868 34.8874C89.7828 32.0952 92.3695 26.8975 93.2199 25.1895L93.3364 24.9563C93.5941 24.4405 94.2199 24.2318 94.7353 24.4897C95.2507 24.7475 95.4593 25.375 95.2016 25.8894L95.0863 26.1203C94.2052 27.8909 91.524 33.2788 88.8404 36.2798C88.6342 36.5106 88.3495 36.6273 88.0624 36.6273H88.0636Z" fill="#FCE300"/>
<path d="M105.93 31.7926C105.698 31.7926 105.465 31.7164 105.272 31.558C104.825 31.1946 104.758 30.5364 105.122 30.0895C106.151 28.826 107.557 25.7587 107.898 24.6426C108.066 24.0913 108.65 23.7806 109.2 23.9501C109.751 24.1183 110.061 24.7015 109.892 25.2529C109.498 26.5397 108.003 29.855 106.74 31.407C106.533 31.6599 106.233 31.7913 105.93 31.7913V31.7926Z" fill="#FCE300"/>
<path d="M104.098 43.7848C103.67 43.7848 103.267 43.5183 103.115 43.091C102.923 42.5483 103.205 41.9515 103.748 41.7575C105.639 41.0847 108.288 39.1434 111.207 36.2935C113.695 33.8635 115.789 31.3365 116.494 30.1921C116.797 29.7022 117.439 29.5499 117.93 29.852C118.42 30.1553 118.572 30.7975 118.27 31.2886C116.791 33.6854 109.534 41.9135 104.448 43.7246C104.333 43.7651 104.215 43.7848 104.098 43.7848Z" fill="#FCE300"/>
<path d="M246.189 30.8826C253.632 30.8826 259.665 24.8489 259.665 17.4059C259.665 9.96292 253.632 3.9292 246.189 3.9292C238.746 3.9292 232.712 9.96292 232.712 17.4059C232.712 24.8489 238.746 30.8826 246.189 30.8826Z" fill="black"/>
<path d="M245.566 17.311H243.956C243.956 18.4098 243.678 19.6481 243.151 20.4838C241.944 19.7719 240.969 18.704 240.164 17.7135C241.913 17.1874 244.033 16.2896 244.033 14.0609C244.033 12.3583 242.826 11.0427 240.721 11.0427C238.462 11.0427 237.27 12.6213 237.27 14.2928C237.27 15.1906 237.517 16.1344 238.044 17.156C236.775 17.8525 236.156 18.9204 236.156 20.1122C236.156 22.1396 238.044 23.4243 240.319 23.4243C241.371 23.4243 242.439 23.0065 243.383 22.2017C244.575 22.8827 245.906 23.2232 247.253 23.2232V21.8768C246.463 21.8459 245.163 21.6138 244.451 21.1649C245.178 20.0352 245.534 18.6267 245.565 17.3112L245.566 17.311ZM240.68 12.3894C241.791 12.3921 242.439 13.2418 242.439 14.0606C242.439 15.2832 240.969 16.0106 239.452 16.5833C239.05 15.7785 238.864 15.0665 238.864 14.3391C238.864 13.3978 239.48 12.3949 240.68 12.3891V12.3894ZM240.319 22.0778C238.973 22.0778 237.75 21.4743 237.75 20.1124C237.75 19.5397 237.951 18.766 238.74 18.2708C239.607 19.4625 240.768 20.5613 242.099 21.4591C241.619 21.8459 241.062 22.0781 240.319 22.0781L240.319 22.0778Z" fill="#F3F4F4"/>
<path d="M251.597 11.0427C250.545 11.0427 249.477 11.4605 248.533 12.2653C247.341 11.5843 246.01 11.2438 244.664 11.2438V12.5902C245.453 12.6211 246.753 12.8532 247.465 13.3021C246.738 14.4318 246.382 15.8402 246.351 17.1558H247.96C247.96 16.057 248.239 14.8187 248.765 13.9829C249.973 14.6949 250.948 15.7628 251.752 16.7532C250.003 17.2793 247.883 18.1771 247.883 20.4059C247.883 22.1082 249.09 23.4238 251.195 23.4238C253.455 23.4238 254.647 21.8452 254.647 20.1737C254.647 19.2759 254.399 18.332 253.873 17.3105C255.142 16.614 255.761 15.5461 255.761 14.3543C255.761 12.3274 253.873 11.0427 251.597 11.0427ZM251.236 22.0776C250.125 22.0749 249.477 21.2252 249.477 20.4064C249.477 19.1837 250.947 18.4564 252.464 17.8837C252.866 18.6885 253.052 19.4005 253.052 20.1278C253.052 21.0692 252.436 22.0721 251.236 22.0778V22.0776ZM253.176 16.1965C252.309 15.0047 251.149 13.9059 249.818 13.0082C250.297 12.6213 250.855 12.3891 251.597 12.3891C252.944 12.3891 254.167 12.9927 254.167 14.3546C254.167 14.9273 253.965 15.701 253.176 16.1962L253.176 16.1965Z" fill="#F3F4F4"/>
</svg>
